<svg id="visual" viewBox="0 0 900 600" width="900" height="600" xmlns="http://www.w3.org/2000/svg" xmlns:xlink="http://www.w3.org/1999/xlink" version="1.1"><rect x="0" y="0" width="900" height="600" fill="#fafafa"></rect><defs><linearGradient id="grad1_0" x1="33.3%" y1="0%" x2="100%" y2="100%"><stop offset="20%" stop-color="#fafafa" stop-opacity="1"></stop><stop offset="80%" stop-color="#fafafa" stop-opacity="1"></stop></linearGradient></defs><defs><linearGradient id="grad2_0" x1="0%" y1="0%" x2="66.7%" y2="100%"><stop offset="20%" stop-color="#fafafa" stop-opacity="1"></stop><stop offset="80%" stop-color="#fafafa" stop-opacity="1"></stop></linearGradient></defs><g transform="translate(900, 0)"><path d="M0 135.2C-17.8 133.3 -35.5 131.4 -51.7 124.9C-67.9 118.4 -82.6 107.2 -94 94C-105.5 80.9 -113.8 65.8 -120.1 49.7C-126.4 33.7 -130.8 16.9 -135.2 0L0 0Z" fill="#1976d2"></path></g><g transform="translate(0, 600)"><path d="M0 -135.2C17.5 -133.2 35 -131.1 51.7 -124.9C68.5 -118.7 84.5 -108.4 94.8 -94.8C105.1 -81.1 109.7 -64.2 115.5 -47.8C121.3 -31.5 128.2 -15.7 135.2 0L0 0Z" fill="#1976d2"></path></g></svg>